<svg xmlns="http://www.w3.org/2000/svg" viewBox="0 0 400 400">
  <rect x="46" y="46" width="308" height="308" rx="72" fill="none" stroke="#111111" stroke-width="8"/>
  <rect x="50" y="50" width="300" height="300" rx="68" fill="#22c55e"/>
  <circle cx="200" cy="112" r="38" fill="#111111"/>
  <text x="200" y="125" text-anchor="middle" font-family="sans-serif" font-size="46" font-weight="900" fill="#ffffff">€</text>
  <rect x="110" y="155" width="180" height="34" rx="8" fill="#15803d"/>
  <text x="200" y="178" text-anchor="middle" font-family="sans-serif" font-size="15" font-weight="700" fill="#ffffff" letter-spacing="4">НОН СТОП</text>
  <rect x="68" y="191" width="264" height="34" rx="5" fill="#166534"/>
  <text x="200" y="216" text-anchor="middle" font-family="sans-serif" font-size="20" font-weight="900" fill="none" stroke="#ffffff" stroke-width="1.2" letter-spacing="22">АКБАР</text>
  <rect x="72" y="225" width="256" height="105" rx="5" fill="#ffffff" opacity="0.95"/>
  <rect x="86" y="238" width="54" height="54" rx="4" fill="#bbf7d0"/>
  <line x1="113" y1="238" x2="113" y2="292" stroke="#15803d" stroke-width="2"/>
  <line x1="86" y1="265" x2="140" y2="265" stroke="#15803d" stroke-width="2"/>
  <rect x="260" y="238" width="54" height="54" rx="4" fill="#bbf7d0"/>
  <line x1="287" y1="238" x2="287" y2="292" stroke="#15803d" stroke-width="2"/>
  <line x1="260" y1="265" x2="314" y2="265" stroke="#15803d" stroke-width="2"/>
  <rect x="168" y="244" width="64" height="86" rx="4" fill="#15803d"/>
  <circle cx="224" cy="288" r="4" fill="#ffffff" opacity="0.8"/>
</svg>
